<svg xmlns="http://www.w3.org/2000/svg" viewBox="0 0 601.97 635.93" width="350px" height="350px" style="transform: translateX(0px);">
	<defs>
		<style>
			.prefix__cls-3,.prefix__cls-6,.prefix__cls-8{opacity:.9}.prefix__cls-5,.prefix__cls-6,.prefix__cls-9{fill:#e4e2e7}.prefix__cls-5{font-weight:500}.prefix__cls-4,.prefix__cls-8{fill:#f27289}.prefix__cls-5{font-size:30.46px;font-family:Poppins-Medium,Poppins}.prefix__cls-7{fill:#0e83a1}
		</style>
	</defs>
	<g id="prefix__Layer_2" data-name="Layer 2">
		<g id="prefix__Layer_1-2" data-name="Layer 1">
			<text transform="rotate(-5.15 5328.114 -956.19)" font-weight="500" fill="#e4e2e7" font-size="17.59" font-family="Poppins-MediumItalic,Poppins" font-style="italic" letterSpacing=".04em" opacity="1">
				thinking the
				<tspan>
					<tspan x="8.52" y="21.54">
						marginals
					</tspan>
				</tspan>
			</text>
			<g class="prefix__cls-3" transform-origin="0px 0px" style="transform: none; transform-origin: 0px 0px;">
				<path class="prefix__cls-4" d="M156.21 448.73l-6.22.56 4.19-12.41 4-.36zM164.47 436l6.22-.56-4.19 12.42-4 .36z">
				</path>
			</g>
			<g class="prefix__cls-3" transform-origin="0px 0px" style="transform: none; transform-origin: 0px 0px;">
				<path class="prefix__cls-4" d="M163.81 502.74l4-.19 5.84 11.73-6.24.29zM161.15 514.86l-4 .19-5.84-11.73 6.24-.29z">
				</path>
			</g>
			<g opacity="1" style="transform: none; transform-origin: 0px 0px;" transform-origin="0px 0px">
				<text class="prefix__cls-5" transform="matrix(-.8 .61 -.61 -.8 256.52 540.8)">
					p
				</text>
				<text class="prefix__cls-5" transform="rotate(154.23 55.745 304.431)">
					h
				</text>
				<text class="prefix__cls-5" transform="rotate(162.57 65.914 298.418)">
					i
				</text>
				<text class="prefix__cls-5" transform="rotate(168.5 73.892 293.923)">
					l
				</text>
				<text class="prefix__cls-5" transform="rotate(180 90.351 287.13)">
					o
				</text>
				<text class="prefix__cls-5" transform="rotate(-173.27 104.954 279.759)">
					s
				</text>
				<text class="prefix__cls-5" transform="rotate(-162.87 121.804 271.928)">
					o
				</text>
				<text class="prefix__cls-5" transform="rotate(-151.57 139.886 263.17)">
					p
				</text>
				<text class="prefix__cls-5" transform="rotate(-140.4 158.24 253.62)">
					h
				</text>
				<text class="prefix__cls-5" transform="scale(-1) rotate(51 508.925 -372.87)">
					y
				</text>
				<text class="prefix__cls-5" transform="rotate(-121.33 190.586 235.047)">
				</text>
				<text class="prefix__cls-5" transform="rotate(-113.37 209.744 228.28)">
					c
				</text>
				<text class="prefix__cls-5" transform="matrix(-.22 -.98 .98 -.22 75.44 492.61)">
					o
				</text>
				<text class="prefix__cls-5" transform="rotate(-94.31 254.193 202.6)">
					l
				</text>
				<text class="prefix__cls-5" transform="rotate(-88.8 270.53 194.318)">
					l
				</text>
				<text class="prefix__cls-5" transform="rotate(-80.43 301.585 183.439)">
					o
				</text>
				<text class="prefix__cls-5" transform="rotate(-68.99 349.414 160.53)">
					q
				</text>
				<text class="prefix__cls-5" transform="rotate(-57.3 415.156 128.954)">
					u
				</text>
				<text class="prefix__cls-5" transform="rotate(-49.19 473.25 91.172)">
					i
				</text>
				<text class="prefix__cls-5" transform="rotate(-40.73 564.979 54.103)">
					u
				</text>
				<text class="prefix__cls-5" transform="rotate(-26.5 838.566 -66.306)">
					m
				</text>
			</g>
			<g opacity="1" style="transform: none; transform-origin: 0px 0px;" transform-origin="0px 0px">
				<path class="prefix__cls-4" d="M116.2 143.43s-5-77 59.94-95.52c0 0 60.55-10.81 56.23 76z">
				</path>
				<path class="prefix__cls-6" d="M154.46 117.72s-7.8 51.07 24 47.35c0 0 23.67-1.81 44.58-11l5 44.63s-5.72 15.64-32.5 16.06c0 0-42.64 5.07-58.42-18.62 0 0-17.63-12.62-9.78-64.48l2-13.07z">
				</path>
			</g>
			<g opacity="1" style="transform: none; transform-origin: 0px 0px;" transform-origin="0px 0px">
				<path class="prefix__cls-4" d="M372.34 107.41S362 25 430.72 1c0 0 64.39-15.45 65.25 78.13z">
				</path>
				<path class="prefix__cls-6" d="M411.83 77.36s-5.15 55.38 28.76 49.37c0 0 25.33-3.44 47.22-14.6l8.19 47.65s-5.18 17.22-33.94 19.32c0 0-45.5 8.16-64-16.31 0 0-19.75-12.45-14.6-68.69l1.29-14.16z">
				</path>
			</g>
			<g opacity="1" style="transform: none; transform-origin: 0px 0px;" transform-origin="0px 0px">
				<path class="prefix__cls-4" d="M362.47 489.1s-10.3-82.42 58.38-106.46c0 0 64.39-15.46 65.25 78.12z">
				</path>
				<path class="prefix__cls-6" d="M402 459.05s-5.15 55.37 28.76 49.36c0 0 25.33-3.43 47.22-14.59l8.16 47.65s-5.15 17.17-33.91 19.31c0 0-45.5 8.16-64-16.31 0 0-19.75-12.45-14.6-68.68l1.29-14.17z">
				</path>
			</g>
			<g opacity="1" style="transform: none; transform-origin: 0px 0px;" transform-origin="0px 0px">
				<path class="prefix__cls-7" d="M244.62 32s12.46 73.71 55 73.19c0 0 41.52 3.11 49.82-25.95A457.6 457.6 0 00361.9 34.6z">
				</path>
				<path class="prefix__cls-8" d="M244.62 180.4s-6.23-59.68 44.12-95c0 0 41.52-28 70.07 16.61 0 0 16.09 38.93 14.53 75.26z">
				</path>
			</g>
			<g opacity="1" style="transform: none; transform-origin: 0px 0px;" transform-origin="0px 0px">
				<path class="prefix__cls-9" d="M157.77 234.81l21.27 175.79 59-20.12-37.82-165.38-42.45 9.71z">
				</path>
				<path class="prefix__cls-8" d="M279.57 202.21s-103 5.29-90.09 126.85l108.68-24.86z">
				</path>
			</g>
			<g opacity="1" style="transform: none; transform-origin: 0px 0px;" transform-origin="0px 0px">
				<path class="prefix__cls-9" d="M416.21 201.58l-14.82 115.74s-63.83 2.68-75.79-38.49c0 0-20.72-49.66 17.39-78.25.01 0 34.28-21.7 73.22 1z">
				</path>
				<path d="M440.41 227.81L431.3 299S421 379.88 374 385.19c0 0-44.87.65-70.83-27.28l22.2-31.12s42.13 24.59 55.91-6.13c0 0 7.67-13.79 16.26-92.43z" fill="#0e83a1" opacity="0.9">
				</path>
			</g>
			<g opacity="1" style="transform: none; transform-origin: 0px 0px;" transform-origin="0px 0px">
				<path class="prefix__cls-7" d="M246.93 396s-20.59 137.34 44 125l32.13-3-7.82-125.51z">
				</path>
				<path class="prefix__cls-6" d="M301.83 383.1l32.83-.64 17.85 144.89-45.63 8.6-5.05-152.85z">
				</path>
			</g>
		</g>
	</g>
</svg>
